ffmpeg version git-2026-04-19-de18feb Copyright (c) 2000-2026 the FFmpeg developers
  built with gcc 9 (Ubuntu 9.4.0-1ubuntu1~20.04.2)
  configuration: --enable-shared --enable-gpl --enable-libx264
  libavutil      60. 30.100 / 60. 30.100
  libavcodec     62. 30.100 / 62. 30.100
  libavformat    62. 13.102 / 62. 13.102
  libavdevice    62.  4.100 / 62.  4.100
  libavfilter    11. 15.101 / 11. 15.101
  libswscale      9.  7.100 /  9.  7.100
  libswresample   6.  4.100 /  6.  4.100
[in#0/x11grab @ 0x5647f8ce9c40] Stream #0: not enough frames to estimate rate; consider increasing probesize
Input #0, x11grab, from ':0.0+0,0':
  Duration: N/A, start: 1777368599.004571, bitrate: 3678192 kb/s
  Stream #0:0: Video: rawvideo (BGR[0] / 0x524742), bgr0, 2870x1602, 3678192 kb/s, 25 fps, 1000k tbr, 1000k tbn, start 1777368599.004571
Stream mapping:
  Stream #0:0 -> #0:0 (rawvideo (native) -> h264 (libx264))
[libx264 @ 0x5647f8cf7f00] using cpu capabilities: MMX2 SSE2Fast SSSE3 SSE4.2 AVX FMA3 BMI2 AVX2
[libx264 @ 0x5647f8cf7f00] profile High, level 5.0
[libx264 @ 0x5647f8cf7f00] 264 - core 155 r2917 0a84d98 - H.264/MPEG-4 AVC codec - Copyleft 2003-2018 - http://www.videolan.org/x264.html - options: cabac=1 ref=1 deblock=1:0:0 analyse=0x3:0x113 me=hex subme=2 psy=1 psy_rd=1.00:0.00 mixed_ref=0 me_range=16 chroma_me=1 trellis=0 8x8dct=1 cqm=0 deadzone=21,11 fast_pskip=1 chroma_qp_offset=0 threads=6 lookahead_threads=2 sliced_threads=0 nr=0 decimate=1 interlaced=0 bluray_compat=0 constrained_intra=0 bframes=3 b_pyramid=2 b_adapt=1 b_bias=0 direct=1 weightb=1 open_gop=0 weightp=1 keyint=250 keyint_min=25 scenecut=40 intra_refresh=0 rc_lookahead=10 rc=crf mbtree=1 crf=23.0 qcomp=0.60 qpmin=0 qpmax=69 qpstep=4 ip_ratio=1.40 aq=1:1.00
Output #0, matroska, to '/home/lmy/catkin_ws/recordings_tmp/exp_10_point/screen.mkv':
  Metadata:
    encoder         : Lavf62.13.102
  Stream #0:0: Video: h264 (H264 / 0x34363248), yuv420p(tv, progressive), 2870x1602, q=2-31, 25 fps, 1k tbn
    Metadata:
      encoder         : Lavc62.30.100 libx264
    Side data:
      CPB properties: bitrate max/min/avg: 0/0/0 buffer size: 0 vbv_delay: N/A
frame=    0 fps=0.0 q=0.0 size=       0KiB time=N/A bitrate=N/A speed=N/A elapsed=0:00:00.50    frame=    6 fps=6.0 q=28.0 size=       1KiB time=00:00:00.20 bitrate=  23.8kbits/s speed= 0.2x elapsed=0:00:01.00    frame=   18 fps= 12 q=28.0 size=       1KiB time=00:00:00.68 bitrate=   7.0kbits/s speed=0.453x elapsed=0:00:01.50    frame=   31 fps= 15 q=28.0 size=       1KiB time=00:00:01.20 bitrate=   4.0kbits/s speed= 0.6x elapsed=0:00:02.00    frame=   44 fps= 18 q=28.0 size=       1KiB time=00:00:01.72 bitrate=   2.8kbits/s speed=0.687x elapsed=0:00:02.50    frame=   56 fps= 19 q=28.0 size=       1KiB time=00:00:02.20 bitrate=   2.2kbits/s speed=0.732x elapsed=0:00:03.00    frame=   68 fps= 19 q=28.0 size=       1KiB time=00:00:02.68 bitrate=   1.8kbits/s speed=0.765x elapsed=0:00:03.50    frame=   81 fps= 20 q=28.0 size=       1KiB time=00:00:03.20 bitrate=   1.5kbits/s speed=0.799x elapsed=0:00:04.00    frame=   94 fps= 21 q=28.0 size=       1KiB time=00:00:03.72 bitrate=   1.3kbits/s speed=0.826x elapsed=0:00:04.50    frame=  106 fps= 21 q=28.0 size=       1KiB time=00:00:04.20 bitrate=   1.1kbits/s speed=0.839x elapsed=0:00:05.00    frame=  119 fps= 22 q=28.0 size=       1KiB time=00:00:04.72 bitrate=   1.0kbits/s speed=0.858x elapsed=0:00:05.50    frame=  131 fps= 22 q=28.0 size=     167KiB time=00:00:05.20 bitrate= 263.1kbits/s speed=0.866x elapsed=0:00:06.00    frame=  144 fps= 22 q=28.0 size=     167KiB time=00:00:05.72 bitrate= 239.2kbits/s speed=0.879x elapsed=0:00:06.50    frame=  156 fps= 22 q=28.0 size=     167KiB time=00:00:06.20 bitrate= 220.7kbits/s speed=0.885x elapsed=0:00:07.00    frame=  169 fps= 23 q=28.0 size=     167KiB time=00:00:06.72 bitrate= 203.6kbits/s speed=0.895x elapsed=0:00:07.50    frame=  181 fps= 23 q=28.0 size=     167KiB time=00:00:07.20 bitrate= 190.0kbits/s speed=0.899x elapsed=0:00:08.00    frame=  194 fps= 23 q=28.0 size=     167KiB time=00:00:07.72 bitrate= 177.2kbits/s speed=0.908x elapsed=0:00:08.50    frame=  206 fps= 23 q=28.0 size=     167KiB time=00:00:08.20 bitrate= 166.8kbits/s speed=0.911x elapsed=0:00:09.00    frame=  219 fps= 23 q=28.0 size=     167KiB time=00:00:08.72 bitrate= 156.9kbits/s speed=0.917x elapsed=0:00:09.50    frame=  231 fps= 23 q=28.0 size=     167KiB time=00:00:09.20 bitrate= 148.7kbits/s speed=0.919x elapsed=0:00:10.00    frame=  243 fps= 23 q=28.0 size=     167KiB time=00:00:09.72 bitrate= 140.7kbits/s speed=0.925x elapsed=0:00:10.50    frame=  256 fps= 23 q=28.0 size=     241KiB time=00:00:10.20 bitrate= 193.3kbits/s speed=0.927x elapsed=0:00:11.00    frame=  269 fps= 23 q=28.0 size=     241KiB time=00:00:10.72 bitrate= 183.9kbits/s speed=0.932x elapsed=0:00:11.50    frame=  281 fps= 23 q=28.0 size=     241KiB time=00:00:11.20 bitrate= 176.0kbits/s speed=0.933x elapsed=0:00:12.00    frame=  294 fps= 24 q=28.0 size=     241KiB time=00:00:11.72 bitrate= 168.2kbits/s speed=0.937x elapsed=0:00:12.50    frame=  306 fps= 24 q=28.0 size=     241KiB time=00:00:12.20 bitrate= 161.6kbits/s speed=0.938x elapsed=0:00:13.00    frame=  319 fps= 24 q=28.0 size=     241KiB time=00:00:12.72 bitrate= 155.0kbits/s speed=0.942x elapsed=0:00:13.50    frame=  331 fps= 24 q=28.0 size=     241KiB time=00:00:13.20 bitrate= 149.3kbits/s speed=0.942x elapsed=0:00:14.00    frame=  343 fps= 24 q=28.0 size=     241KiB time=00:00:13.68 bitrate= 144.1kbits/s speed=0.943x elapsed=0:00:14.50    frame=  356 fps= 24 q=28.0 size=     241KiB time=00:00:14.20 bitrate= 138.8kbits/s speed=0.946x elapsed=0:00:15.01    frame=  369 fps= 24 q=28.0 size=     241KiB time=00:00:14.72 bitrate= 133.9kbits/s speed=0.949x elapsed=0:00:15.51    frame=  381 fps= 24 q=28.0 size=     256KiB time=00:00:15.20 bitrate= 138.0kbits/s speed=0.949x elapsed=0:00:16.01    frame=  394 fps= 24 q=28.0 size=     256KiB time=00:00:15.72 bitrate= 133.4kbits/s speed=0.952x elapsed=0:00:16.51    frame=  406 fps= 24 q=28.0 size=     256KiB time=00:00:16.20 bitrate= 129.5kbits/s speed=0.952x elapsed=0:00:17.01    frame=  419 fps= 24 q=28.0 size=     256KiB time=00:00:16.72 bitrate= 125.4kbits/s speed=0.955x elapsed=0:00:17.51    frame=  431 fps= 24 q=28.0 size=     256KiB time=00:00:17.20 bitrate= 121.9kbits/s speed=0.955x elapsed=0:00:18.01    frame=  444 fps= 24 q=28.0 size=     512KiB time=00:00:17.72 bitrate= 236.7kbits/s speed=0.957x elapsed=0:00:18.51    frame=  456 fps= 24 q=28.0 size=     512KiB time=00:00:18.20 bitrate= 230.5kbits/s speed=0.957x elapsed=0:00:19.01    frame=  469 fps= 24 q=28.0 size=     512KiB time=00:00:18.72 bitrate= 224.1kbits/s speed=0.959x elapsed=0:00:19.51    [out#0/matroska @ 0x5647f8cf6500] video:1269KiB audio:0KiB subtitle:0KiB other streams:0KiB global headers:0KiB muxing overhead: 0.328612%
frame=  502 fps= 25 q=-1.0 Lsize=    1273KiB time=00:00:20.04 bitrate= 520.4kbits/s speed=0.997x elapsed=0:00:20.10    
[libx264 @ 0x5647f8cf7f00] frame I:3     Avg QP:12.31  size:163979
[libx264 @ 0x5647f8cf7f00] frame P:128   Avg QP:18.95  size:  4794
[libx264 @ 0x5647f8cf7f00] frame B:371   Avg QP:23.69  size:   520
[libx264 @ 0x5647f8cf7f00] consecutive B-frames:  1.4%  0.0%  0.6% 98.0%
[libx264 @ 0x5647f8cf7f00] mb I  I16..4: 84.6%  1.8% 13.6%
[libx264 @ 0x5647f8cf7f00] mb P  I16..4:  0.5%  0.1%  0.2%  P16..4:  0.5%  0.2%  0.2%  0.0%  0.0%    skip:98.4%
[libx264 @ 0x5647f8cf7f00] mb B  I16..4:  0.0%  0.0%  0.0%  B16..8:  0.3%  0.1%  0.0%  direct: 0.1%  skip:99.5%  L0:47.6% L1:47.8% BI: 4.6%
[libx264 @ 0x5647f8cf7f00] 8x8 transform intra:4.5% inter:4.6%
[libx264 @ 0x5647f8cf7f00] coded y,uvDC,uvAC intra: 16.7% 23.6% 19.8% inter: 0.1% 0.2% 0.1%
[libx264 @ 0x5647f8cf7f00] i16 v,h,dc,p: 70% 28%  2%  0%
[libx264 @ 0x5647f8cf7f00] i8 v,h,dc,ddl,ddr,vr,hd,vl,hu: 11% 19% 65%  1%  0%  0%  2%  0%  1%
[libx264 @ 0x5647f8cf7f00] i4 v,h,dc,ddl,ddr,vr,hd,vl,hu: 36% 25% 18%  3%  3%  5%  3%  4%  3%
[libx264 @ 0x5647f8cf7f00] i8c dc,h,v,p: 62% 27% 10%  1%
[libx264 @ 0x5647f8cf7f00] Weighted P-Frames: Y:0.0% UV:0.0%
[libx264 @ 0x5647f8cf7f00] kb/s:516.39
Exiting normally, received signal 2.
